<?xml version="1.0" ?><svg fill="white" enable-background="new 0 0 192 192" id="windows" version="1.1" viewBox="0 0 192 192" xml:space="preserve" xmlns="http://www.w3.org/2000/svg" xmlns:xlink="http://www.w3.org/1999/xlink"><g><path d="M88,0H4C1.7891,0,0,1.7892,0,4v84c0,2.2108,1.7891,4,4,4h84c2.2107,0,4-1.7892,4-4V4C92,1.7892,90.2107,0,88,0z M84,84H8V8   h76V84z"/><path d="M88,100H4c-2.2109,0-4,1.7892-4,4v84c0,2.2108,1.7891,4,4,4h84c2.2107,0,4-1.7892,4-4v-84C92,101.7892,90.2107,100,88,100z    M84,184H8v-76h76V184z"/><path d="M188,100h-84c-2.2109,0-4,1.7892-4,4v84c0,2.2108,1.7891,4,4,4h84c2.2107,0,4-1.7892,4-4v-84   C192,101.7892,190.2107,100,188,100z M184,184h-76v-76h76V184z"/><path d="M188,0h-84c-2.2109,0-4,1.7892-4,4v84c0,2.2108,1.7891,4,4,4h84c2.2107,0,4-1.7892,4-4V4C192,1.7892,190.2107,0,188,0z    M184,84h-76V8h76V84z"/></g></svg>