<?xml version="1.0" encoding="iso-8859-1"?>
<!-- Generator: Adobe Illustrator 16.0.0, SVG Export Plug-In . SVG Version: 6.00 Build 0)  -->
<!DOCTYPE svg PUBLIC "-//W3C//DTD SVG 1.1//EN" "http://www.w3.org/Graphics/SVG/1.1/DTD/svg11.dtd">
<svg version="1.1" id="Capa_1" xmlns="http://www.w3.org/2000/svg" xmlns:xlink="http://www.w3.org/1999/xlink" x="0px" y="0px"
	 width="516.375px" height="516.375px" viewBox="0 0 516.375 516.375" style="enable-background:new 0 0 516.375 516.375;" fill="white"
	 xml:space="preserve">
<g>
	<path d="M325.125,0H114.75C93.712,0,76.5,17.212,76.5,38.25v439.875c0,21.037,17.212,38.25,38.25,38.25h286.875
		c21.037,0,38.25-17.213,38.25-38.25v-344.25L325.125,0z M325.125,28.688l89.888,105.188H344.25
		c-9.562,0-19.125-9.562-19.125-19.125V28.688z M420.75,478.125c0,9.562-7.65,19.125-19.125,19.125H114.75
		c-9.562,0-19.125-7.65-19.125-19.125V38.25c0-9.562,7.65-19.125,19.125-19.125h57.375V38.25h19.125v19.125h-19.125V76.5h19.125
		v19.125h-19.125v19.125h19.125v19.125h-19.125V153h19.125v19.125h-19.125v19.125h19.125v19.125h-19.125V229.5h19.125v19.125
		h-19.125v19.125h19.125v19.125C170.212,290.7,153,309.825,153,334.688c0,26.775,21.038,47.812,47.812,47.812
		s47.812-21.037,47.812-47.812c0-22.95-17.212-42.075-38.25-47.812V267.75v-19.125H229.5V229.5h-19.125v-19.125H229.5V191.25
		h-19.125v-19.125H229.5V153h-19.125v-19.125H229.5V114.75h-19.125V95.625H229.5V76.5h-19.125V57.375H229.5V38.25h-19.125V19.125
		H306v95.625c0,21.038,17.213,38.25,38.25,38.25h76.5V478.125z M200.812,306c15.3,0,28.688,13.388,28.688,28.688
		s-13.388,28.688-28.688,28.688s-28.688-13.388-28.688-28.688S185.513,306,200.812,306z"/>
</g>
<g>
</g>
<g>
</g>
<g>
</g>
<g>
</g>
<g>
</g>
<g>
</g>
<g>
</g>
<g>
</g>
<g>
</g>
<g>
</g>
<g>
</g>
<g>
</g>
<g>
</g>
<g>
</g>
<g>
</g>
</svg>
